<svg width="138" height="138" viewBox="0 0 138 138" fill="none" xmlns="http://www.w3.org/2000/svg">
<path d="M68.9999 0.25C67.3423 0.25 65.7526 0.90848 64.5805 2.08058C63.4084 3.25268 62.7499 4.8424 62.7499 6.5C62.7499 8.1576 63.4084 9.74732 64.5805 10.9194C65.7526 12.0915 67.3423 12.75 68.9999 12.75C82.6389 12.7574 95.8102 17.7228 106.06 26.7211C116.309 35.7193 122.938 48.1368 124.711 61.6601C126.485 75.1833 123.281 88.8901 115.698 100.227C108.115 111.563 96.6693 119.757 83.4933 123.28C70.3172 126.804 56.3096 125.417 44.08 119.379C31.8505 113.341 22.233 103.063 17.0195 90.4593C11.8059 77.856 11.3518 63.7873 15.7418 50.874C20.1318 37.9608 29.0664 27.0839 40.8812 20.2696C42.3162 19.4395 43.3627 18.0734 43.7905 16.4718C44.2183 14.8701 43.9923 13.1642 43.1623 11.7291C42.3323 10.2941 40.9662 9.24757 39.3645 8.81978C37.7629 8.39199 36.0569 8.61796 34.6219 9.448C20.1688 17.7838 9.23916 31.0898 3.8693 46.8866C-1.50056 62.6835 -0.944362 79.8938 5.43427 95.311C11.8129 110.728 23.5789 123.301 38.54 130.686C53.5011 138.071 70.6369 139.765 86.7546 135.453C102.872 131.141 116.873 121.116 126.147 107.246C135.421 93.3768 139.337 76.6086 137.165 60.066C134.992 43.5234 126.88 28.3347 114.339 17.3299C101.798 6.32513 85.6845 0.254812 68.9999 0.25Z" fill="#09FBD3"/>
<path d="M38.1588 8.64839L12.8505 7.02495C11.2222 7.00365 9.64988 7.61933 8.46896 8.74073C7.28804 9.86213 6.59194 11.4005 6.52907 13.0278C6.46621 14.6551 7.04156 16.2426 8.13245 17.4518C9.22333 18.6609 10.7434 19.3961 12.3686 19.5004L31.5061 20.7394L31.4999 37.75C31.4999 39.4076 32.1583 40.9973 33.3304 42.1694C34.5025 43.3415 36.0922 44 37.7499 44C39.4075 44 40.9972 43.3415 42.1693 42.1694C43.3414 40.9973 43.9999 39.4076 43.9999 37.75L44.0061 14.8801C44.0029 13.2937 43.3972 11.7677 42.3117 10.6108C41.2262 9.4539 39.7418 8.75248 38.1588 8.64839Z" fill="#09FBD3"/>
</svg>
