<svg width="90" height="90" viewBox="0 0 90 90" fill="none" xmlns="http://www.w3.org/2000/svg">
<rect width="90" height="90" rx="15" fill="white"/>
<g clip-path="url(#clip0_104_168)">
<path d="M46.4731 56.4609C57.6768 56.4609 66.7906 47.0225 66.7906 35.4199C66.7906 23.8173 57.6768 14.3789 46.4731 14.3789C35.2695 14.3789 26.1556 23.8173 26.1556 35.4199C26.1556 47.0225 35.2695 56.4609 46.4731 56.4609ZM46.4731 16.3828C56.6087 16.3828 64.8556 24.9235 64.8556 35.4199C64.8556 45.9164 56.6087 54.457 46.4731 54.457C36.3376 54.457 28.0906 45.9164 28.0906 35.4199C28.0906 24.9235 36.3357 16.3828 46.4731 16.3828ZM37.7656 68.4844C35.5578 68.4844 33.8956 70.2057 33.8956 72.4922V75.498C33.8956 75.7638 33.9976 76.0186 34.179 76.2065C34.3605 76.3944 34.6065 76.5 34.8631 76.5H58.0831C58.3397 76.5 58.5858 76.3944 58.7673 76.2065C58.9487 76.0186 59.0506 75.7638 59.0506 75.498V72.6425C59.0506 70.3099 57.3498 68.4844 55.1806 68.4844H37.7656ZM57.1156 72.6425V74.4961H35.8306V72.4922C35.8306 71.3119 36.6259 70.4883 37.7656 70.4883H55.1806C56.2836 70.4883 57.1156 71.4141 57.1156 72.6425Z" fill="black"/>
<path d="M45.5114 62.4286C45.5114 62.4406 45.5056 62.4486 45.5056 62.4606V65.6749C45.5056 65.9406 45.6075 66.1955 45.789 66.3834C45.9704 66.5713 46.2165 66.6769 46.4731 66.6769C46.7297 66.6769 46.9758 66.5713 47.1572 66.3834C47.3387 66.1955 47.4406 65.9406 47.4406 65.6749V62.4606C47.4406 62.4466 47.4329 62.4346 47.4329 62.4206C53.6562 62.1872 59.59 59.6396 64.1474 55.2446L66.4307 57.6072C66.6132 57.7897 66.8576 57.8907 67.1113 57.8884C67.3649 57.8861 67.6076 57.7807 67.787 57.595C67.9664 57.4092 68.0681 57.1579 68.0703 56.8952C68.0725 56.6325 67.975 56.3794 67.7988 56.1904L64.8459 53.1325C64.6645 52.9446 64.4185 52.8391 64.1619 52.8391C63.9054 52.8391 63.6593 52.9446 63.4779 53.1325C58.9074 57.8637 52.8335 60.4688 46.3725 60.4688C39.9115 60.4688 33.8376 57.8637 29.269 53.1325C24.7005 48.4012 22.185 42.111 22.185 35.4199C22.185 28.7289 24.7005 22.4386 29.269 17.7074C29.4504 17.5195 29.5523 17.2647 29.5523 16.999C29.5523 16.7333 29.4504 16.4785 29.269 16.2906L26.3162 13.2327C26.1337 13.0502 25.8894 12.9492 25.6357 12.9515C25.382 12.9537 25.1393 13.0591 24.96 13.2449C24.7806 13.4307 24.6788 13.682 24.6766 13.9447C24.6744 14.2074 24.7719 14.4605 24.9482 14.6494L27.2295 17.014C22.7261 22.006 20.2301 28.5884 20.25 35.4199C20.25 42.644 22.9667 49.4393 27.901 54.5492C32.582 59.4115 38.8842 62.2313 45.5114 62.4286Z" fill="black"/>
<path d="M46.3843 21.6203L46.0145 21.9998L47.4199 22.5312L46.0145 23.0625L44.3133 23.6697L42.834 24.1252L41.7984 25.3397L40.541 25.7192L39.3576 26.9337V29.3627C39.3576 29.3627 38.5439 27.6168 38.396 27.3891C38.2481 27.1614 37.4344 26.9337 37.4344 26.9337C37.4344 26.9337 36.9906 27.1614 36.6948 26.9337C36.4729 26.706 35.4373 26.9337 35.4373 26.9337L34.5498 28.3L34.1799 30.4253L34.5498 31.1085L35.5113 30.8808L36.4729 31.0326L36.103 32.3989L36.8427 33.3857L37.0646 34.2206L37.4344 35.7387L36.251 34.6001L34.6977 32.7784L33.7361 31.5639L31.739 30.8808L30.3483 29.0325L29.8645 26.9337L31.739 23.8216C34.8456 19.5708 39.7274 16.7623 45.2009 16.3828L45.1269 17.5973C45.1269 17.5973 43.1298 18.4323 42.9079 18.5082C42.686 18.5841 41.8724 19.1154 41.8724 19.1154L42.6121 20.3299L44.2393 18.5841H46.4583L47.198 19.6467L48.3814 20.4058L47.8637 21.6203H46.3843ZM54.9644 43.7847L54.2248 45.4546L53.0413 45.9101C53.0413 45.9101 52.9673 48.415 52.7454 48.4909C52.5235 48.5668 51.488 49.7812 51.488 49.7812C51.488 49.7812 50.4525 50.0849 50.0087 50.2367C49.5649 50.3885 48.8252 50.3126 48.3814 51.0716C48.0116 51.8307 47.4938 51.8307 47.124 51.9066C46.7542 51.9825 45.3488 51.9066 45.1269 51.9825C44.905 52.0584 43.6476 53.2729 43.6476 53.2729L42.9258 54.1439C42.2601 54.068 41.7639 53.9333 41.1722 53.7056L41.3546 52.9693V47.5041L40.9848 46.6691L39.2836 44.9233L38.1001 42.8738L37.5824 41.2039L38.47 39.3063L38.8398 37.4846L40.0233 36.5737H43.4257L45.5707 37.8641C45.5707 37.8641 46.1625 37.94 46.3843 38.3195C46.6802 38.699 47.124 39.3063 47.7157 39.3822C48.2335 39.4581 48.5294 39.534 48.8992 39.534H48.9732C49.0471 39.6099 49.1211 39.6858 49.343 39.8376C50.2306 40.369 50.7484 41.128 50.7484 41.128L51.1182 41.8871C51.1182 41.8871 50.6004 41.963 51.4141 42.4184C52.3016 42.9498 53.4111 43.1775 53.4111 43.1775L54.9644 43.7847ZM64.8759 35.3592C64.8759 35.8905 64.8759 36.4219 64.8019 36.9532C64.2842 36.9532 63.7664 36.9532 63.7664 37.0291C63.6924 37.2568 61.9912 37.0291 61.9912 37.0291L60.8817 35.2074L61.1776 32.5507L60.364 29.9699V27.7686L61.0297 26.3264L62.435 25.871C63.9883 28.6036 64.8759 31.8675 64.8759 35.3592Z" fill="black"/>
</g>
<defs>
<clipPath id="clip0_104_168">
<rect width="48.375" height="64.125" fill="white" transform="translate(20.25 12.375)"/>
</clipPath>
</defs>
</svg>
