<svg width="384" height="480" viewBox="0 0 384 480" fill="none" xmlns="http://www.w3.org/2000/svg">
<path d="M280 226C286.56 226 292 231.44 292 238C292 244.56 286.56 250 280 250C273.44 250 268 244.56 268 238C268 231.44 273.44 226 280 226ZM104 226C110.56 226 116 231.44 116 238C116 244.56 110.56 250 104 250C97.44 250 92 244.56 92 238C92 231.44 97.44 226 104 226Z" fill="#828282"/>
<path d="M376 480H8C3.584 480 0 476.416 0 472V8C0 3.584 3.584 0 8 0H280C284.416 0 288 3.584 288 8C288 12.416 284.416 16 280 16H16V464H368V104C368 99.584 371.584 96 376 96C380.416 96 384 99.584 384 104V472C384 476.416 380.416 480 376 480Z" fill="#828282"/>
<path d="M375.664 112H280C275.584 112 272 108.416 272 104V48C272 43.584 275.584 40 280 40C284.416 40 288 43.584 288 48V96H356.384L274.336 13.648C271.216 10.528 271.232 5.45602 274.352 2.33602C277.488 -0.783984 282.56 -0.783985 285.664 2.36802L381.328 98.368C383.616 100.656 384.288 104.08 383.056 107.072C381.808 110.048 378.896 112 375.664 112ZM216 288C211.584 288 208 284.416 208 280C208 271.168 200.816 264 192 264C183.184 264 176 271.168 176 280C176 284.416 172.416 288 168 288C163.584 288 160 284.416 160 280C160 262.352 174.352 248 192 248C209.648 248 224 262.352 224 280C224 284.416 220.416 288 216 288ZM280 252C268.976 252 260 243.024 260 232C260 220.976 268.976 212 280 212C291.024 212 300 220.976 300 232C300 243.024 291.024 252 280 252ZM280 228C277.872 228 276 229.872 276 232C276 234.128 277.872 236 280 236C282.128 236 284 234.128 284 232C284 229.872 282.128 228 280 228ZM104 252C92.976 252 84 243.024 84 232C84 220.976 92.976 212 104 212C115.024 212 124 220.976 124 232C124 243.024 115.024 252 104 252ZM104 228C101.872 228 100 229.872 100 232C100 234.128 101.872 236 104 236C106.128 236 108 234.128 108 232C108 229.872 106.128 228 104 228Z" fill="#828282"/>
<path d="M376 480H8C3.584 480 0 476.416 0 472V8C0 3.584 3.584 0 8 0H280C284.416 0 288 3.584 288 8C288 12.416 284.416 16 280 16H16V464H368V104C368 99.584 371.584 96 376 96C380.416 96 384 99.584 384 104V472C384 476.416 380.416 480 376 480Z" fill="#828282"/>
<path d="M375.664 112H280C275.584 112 272 108.416 272 104V48C272 43.584 275.584 40 280 40C284.416 40 288 43.584 288 48V96H356.384L274.336 13.648C271.216 10.528 271.232 5.45602 274.352 2.33602C277.488 -0.783984 282.56 -0.783985 285.664 2.36802L381.328 98.368C383.616 100.656 384.288 104.08 383.056 107.072C381.808 110.048 378.896 112 375.664 112ZM216 288C211.584 288 208 284.416 208 280C208 271.168 200.816 264 192 264C183.184 264 176 271.168 176 280C176 284.416 172.416 288 168 288C163.584 288 160 284.416 160 280C160 262.352 174.352 248 192 248C209.648 248 224 262.352 224 280C224 284.416 220.416 288 216 288ZM280 252C268.976 252 260 243.024 260 232C260 220.976 268.976 212 280 212C291.024 212 300 220.976 300 232C300 243.024 291.024 252 280 252ZM280 228C277.872 228 276 229.872 276 232C276 234.128 277.872 236 280 236C282.128 236 284 234.128 284 232C284 229.872 282.128 228 280 228ZM104 252C92.976 252 84 243.024 84 232C84 220.976 92.976 212 104 212C115.024 212 124 220.976 124 232C124 243.024 115.024 252 104 252ZM104 228C101.872 228 100 229.872 100 232C100 234.128 101.872 236 104 236C106.128 236 108 234.128 108 232C108 229.872 106.128 228 104 228Z" fill="#828282"/>
</svg>
