<svg width="362" height="202" viewBox="0 0 362 202" fill="none" xmlns="http://www.w3.org/2000/svg">
<path d="M43.1167 8.93L37.7607 27H34.4067L30.6107 13.324L26.5807 27L23.2527 27.026L18.1307 8.93H21.2767L25.0207 23.646L29.0767 8.93H32.4047L36.1747 23.568L39.9447 8.93H43.1167ZM58.6913 19.486C58.6913 20.0233 58.6567 20.5087 58.5873 20.942H47.6413C47.728 22.086 48.1527 23.0047 48.9153 23.698C49.678 24.3913 50.614 24.738 51.7233 24.738C53.318 24.738 54.4447 24.0707 55.1033 22.736H58.3013C57.868 24.0533 57.0793 25.1367 55.9353 25.986C54.8087 26.818 53.4047 27.234 51.7233 27.234C50.354 27.234 49.1233 26.9307 48.0313 26.324C46.9567 25.7 46.1073 24.8333 45.4833 23.724C44.8767 22.5973 44.5733 21.2973 44.5733 19.824C44.5733 18.3507 44.868 17.0593 45.4573 15.95C46.064 14.8233 46.9047 13.9567 47.9793 13.35C49.0713 12.7433 50.3193 12.44 51.7233 12.44C53.0753 12.44 54.28 12.7347 55.3373 13.324C56.3947 13.9133 57.218 14.7453 57.8073 15.82C58.3967 16.8773 58.6913 18.0993 58.6913 19.486ZM55.5973 18.55C55.58 17.458 55.19 16.5827 54.4273 15.924C53.6647 15.2653 52.72 14.936 51.5933 14.936C50.5707 14.936 49.6953 15.2653 48.9673 15.924C48.2393 16.5653 47.806 17.4407 47.6673 18.55H55.5973ZM67.3741 19.772C67.3741 18.3333 67.6688 17.0593 68.2581 15.95C68.8648 14.8407 69.6794 13.9827 70.7021 13.376C71.7421 12.752 72.8861 12.44 74.1341 12.44C75.2608 12.44 76.2401 12.6653 77.0721 13.116C77.9214 13.5493 78.5974 14.0953 79.1001 14.754V12.674H82.0901V27H79.1001V24.868C78.5974 25.544 77.9128 26.1073 77.0461 26.558C76.1794 27.0087 75.1914 27.234 74.0821 27.234C72.8514 27.234 71.7248 26.922 70.7021 26.298C69.6794 25.6567 68.8648 24.7727 68.2581 23.646C67.6688 22.502 67.3741 21.2107 67.3741 19.772ZM79.1001 19.824C79.1001 18.836 78.8921 17.978 78.4761 17.25C78.0774 16.522 77.5488 15.9673 76.8901 15.586C76.2314 15.2047 75.5208 15.014 74.7581 15.014C73.9954 15.014 73.2848 15.2047 72.6261 15.586C71.9674 15.95 71.4301 16.496 71.0141 17.224C70.6154 17.9347 70.4161 18.784 70.4161 19.772C70.4161 20.76 70.6154 21.6267 71.0141 22.372C71.4301 23.1173 71.9674 23.6893 72.6261 24.088C73.3021 24.4693 74.0128 24.66 74.7581 24.66C75.5208 24.66 76.2314 24.4693 76.8901 24.088C77.5488 23.7067 78.0774 23.152 78.4761 22.424C78.8921 21.6787 79.1001 20.812 79.1001 19.824ZM88.9472 14.754C89.3805 14.026 89.9525 13.4627 90.6632 13.064C91.3912 12.648 92.2492 12.44 93.2372 12.44V15.508H92.4832C91.3219 15.508 90.4379 15.8027 89.8312 16.392C89.2419 16.9813 88.9472 18.004 88.9472 19.46V27H85.9832V12.674H88.9472V14.754ZM109.092 19.486C109.092 20.0233 109.057 20.5087 108.988 20.942H98.0417C98.1284 22.086 98.5531 23.0047 99.3157 23.698C100.078 24.3913 101.014 24.738 102.124 24.738C103.718 24.738 104.845 24.0707 105.504 22.736H108.702C108.268 24.0533 107.48 25.1367 106.336 25.986C105.209 26.818 103.805 27.234 102.124 27.234C100.754 27.234 99.5237 26.9307 98.4317 26.324C97.3571 25.7 96.5077 24.8333 95.8837 23.724C95.2771 22.5973 94.9737 21.2973 94.9737 19.824C94.9737 18.3507 95.2684 17.0593 95.8577 15.95C96.4644 14.8233 97.3051 13.9567 98.3797 13.35C99.4717 12.7433 100.72 12.44 102.124 12.44C103.476 12.44 104.68 12.7347 105.738 13.324C106.795 13.9133 107.618 14.7453 108.208 15.82C108.797 16.8773 109.092 18.0993 109.092 19.486ZM105.998 18.55C105.98 17.458 105.59 16.5827 104.828 15.924C104.065 15.2653 103.12 14.936 101.994 14.936C100.971 14.936 100.096 15.2653 99.3677 15.924C98.6397 16.5653 98.2064 17.4407 98.0677 18.55H105.998ZM117.775 19.824C117.775 18.3507 118.069 17.0593 118.659 15.95C119.265 14.8233 120.097 13.9567 121.155 13.35C122.212 12.7433 123.425 12.44 124.795 12.44C126.528 12.44 127.958 12.856 129.085 13.688C130.229 14.5027 131 15.6727 131.399 17.198H128.201C127.941 16.4873 127.525 15.9327 126.953 15.534C126.381 15.1353 125.661 14.936 124.795 14.936C123.581 14.936 122.611 15.3693 121.883 16.236C121.172 17.0853 120.817 18.2813 120.817 19.824C120.817 21.3667 121.172 22.5713 121.883 23.438C122.611 24.3047 123.581 24.738 124.795 24.738C126.511 24.738 127.646 23.984 128.201 22.476H131.399C130.983 23.932 130.203 25.0933 129.059 25.96C127.915 26.8093 126.493 27.234 124.795 27.234C123.425 27.234 122.212 26.9307 121.155 26.324C120.097 25.7 119.265 24.8333 118.659 23.724C118.069 22.5973 117.775 21.2973 117.775 19.824ZM147.326 12.674V27H144.362V25.31C143.894 25.8993 143.279 26.3673 142.516 26.714C141.771 27.0433 140.974 27.208 140.124 27.208C138.998 27.208 137.984 26.974 137.082 26.506C136.198 26.038 135.496 25.3447 134.976 24.426C134.474 23.5073 134.222 22.398 134.222 21.098V12.674H137.16V20.656C137.16 21.9387 137.481 22.9267 138.122 23.62C138.764 24.296 139.639 24.634 140.748 24.634C141.858 24.634 142.733 24.296 143.374 23.62C144.033 22.9267 144.362 21.9387 144.362 20.656V12.674H147.326ZM154.201 14.754C154.634 14.026 155.206 13.4627 155.917 13.064C156.645 12.648 157.503 12.44 158.491 12.44V15.508H157.737C156.576 15.508 155.692 15.8027 155.085 16.392C154.496 16.9813 154.201 18.004 154.201 19.46V27H151.237V12.674H154.201V14.754ZM164.18 14.754C164.613 14.026 165.185 13.4627 165.896 13.064C166.624 12.648 167.482 12.44 168.47 12.44V15.508H167.716C166.554 15.508 165.67 15.8027 165.064 16.392C164.474 16.9813 164.18 18.004 164.18 19.46V27H161.216V12.674H164.18V14.754ZM184.324 19.486C184.324 20.0233 184.289 20.5087 184.22 20.942H173.274C173.361 22.086 173.785 23.0047 174.548 23.698C175.311 24.3913 176.247 24.738 177.356 24.738C178.951 24.738 180.077 24.0707 180.736 22.736H183.934C183.501 24.0533 182.712 25.1367 181.568 25.986C180.441 26.818 179.037 27.234 177.356 27.234C175.987 27.234 174.756 26.9307 173.664 26.324C172.589 25.7 171.74 24.8333 171.116 23.724C170.509 22.5973 170.206 21.2973 170.206 19.824C170.206 18.3507 170.501 17.0593 171.09 15.95C171.697 14.8233 172.537 13.9567 173.612 13.35C174.704 12.7433 175.952 12.44 177.356 12.44C178.708 12.44 179.913 12.7347 180.97 13.324C182.027 13.9133 182.851 14.7453 183.44 15.82C184.029 16.8773 184.324 18.0993 184.324 19.486ZM181.23 18.55C181.213 17.458 180.823 16.5827 180.06 15.924C179.297 15.2653 178.353 14.936 177.226 14.936C176.203 14.936 175.328 15.2653 174.6 15.924C173.872 16.5653 173.439 17.4407 173.3 18.55H181.23ZM194.469 12.44C195.596 12.44 196.601 12.674 197.485 13.142C198.386 13.61 199.088 14.3033 199.591 15.222C200.094 16.1407 200.345 17.25 200.345 18.55V27H197.407V18.992C197.407 17.7093 197.086 16.73 196.445 16.054C195.804 15.3607 194.928 15.014 193.819 15.014C192.71 15.014 191.826 15.3607 191.167 16.054C190.526 16.73 190.205 17.7093 190.205 18.992V27H187.241V12.674H190.205V14.312C190.69 13.7227 191.306 13.2633 192.051 12.934C192.814 12.6047 193.62 12.44 194.469 12.44ZM207.584 15.092V23.022C207.584 23.5593 207.705 23.9493 207.948 24.192C208.208 24.4173 208.641 24.53 209.248 24.53H211.068V27H208.728C207.393 27 206.37 26.688 205.66 26.064C204.949 25.44 204.594 24.426 204.594 23.022V15.092H202.904V12.674H204.594V9.112H207.584V12.674H211.068V15.092H207.584ZM216.764 7.76V27H213.8V7.76H216.764ZM233.551 12.674L224.763 33.734H221.695L224.607 26.766L218.965 12.674H222.267L226.297 23.594L230.483 12.674H233.551ZM261.782 12.674L257.336 27H254.216L251.33 16.418L248.444 27H245.324L240.852 12.674H243.868L246.858 24.192L249.9 12.674H252.994L255.906 24.14L258.87 12.674H261.782ZM270.211 27.234C268.859 27.234 267.637 26.9307 266.545 26.324C265.453 25.7 264.595 24.8333 263.971 23.724C263.347 22.5973 263.035 21.2973 263.035 19.824C263.035 18.368 263.356 17.0767 263.997 15.95C264.638 14.8233 265.514 13.9567 266.623 13.35C267.732 12.7433 268.972 12.44 270.341 12.44C271.71 12.44 272.95 12.7433 274.059 13.35C275.168 13.9567 276.044 14.8233 276.685 15.95C277.326 17.0767 277.647 18.368 277.647 19.824C277.647 21.28 277.318 22.5713 276.659 23.698C276 24.8247 275.099 25.7 273.955 26.324C272.828 26.9307 271.58 27.234 270.211 27.234ZM270.211 24.66C270.974 24.66 271.684 24.478 272.343 24.114C273.019 23.75 273.565 23.204 273.981 22.476C274.397 21.748 274.605 20.864 274.605 19.824C274.605 18.784 274.406 17.9087 274.007 17.198C273.608 16.47 273.08 15.924 272.421 15.56C271.762 15.196 271.052 15.014 270.289 15.014C269.526 15.014 268.816 15.196 268.157 15.56C267.516 15.924 267.004 16.47 266.623 17.198C266.242 17.9087 266.051 18.784 266.051 19.824C266.051 21.3667 266.441 22.5627 267.221 23.412C268.018 24.244 269.015 24.66 270.211 24.66ZM283.541 14.754C283.974 14.026 284.546 13.4627 285.257 13.064C285.985 12.648 286.843 12.44 287.831 12.44V15.508H287.077C285.916 15.508 285.032 15.8027 284.425 16.392C283.836 16.9813 283.541 18.004 283.541 19.46V27H280.577V12.674H283.541V14.754ZM296.223 19.85L302.827 27H298.823L293.519 20.838V27H290.555V7.76H293.519V18.94L298.719 12.674H302.827L296.223 19.85ZM306.46 10.776C305.923 10.776 305.472 10.594 305.108 10.23C304.744 9.866 304.562 9.41533 304.562 8.878C304.562 8.34067 304.744 7.89 305.108 7.526C305.472 7.162 305.923 6.98 306.46 6.98C306.98 6.98 307.422 7.162 307.786 7.526C308.15 7.89 308.332 8.34067 308.332 8.878C308.332 9.41533 308.15 9.866 307.786 10.23C307.422 10.594 306.98 10.776 306.46 10.776ZM307.916 12.674V27H304.952V12.674H307.916ZM319.035 12.44C320.162 12.44 321.167 12.674 322.051 13.142C322.953 13.61 323.655 14.3033 324.157 15.222C324.66 16.1407 324.911 17.25 324.911 18.55V27H321.973V18.992C321.973 17.7093 321.653 16.73 321.011 16.054C320.37 15.3607 319.495 15.014 318.385 15.014C317.276 15.014 316.392 15.3607 315.733 16.054C315.092 16.73 314.771 17.7093 314.771 18.992V27H311.807V12.674H314.771V14.312C315.257 13.7227 315.872 13.2633 316.617 12.934C317.38 12.6047 318.186 12.44 319.035 12.44ZM334.464 12.44C335.574 12.44 336.553 12.6653 337.402 13.116C338.269 13.5493 338.945 14.0953 339.43 14.754V12.674H342.42V27.234C342.42 28.5513 342.143 29.7213 341.588 30.744C341.034 31.784 340.228 32.5987 339.17 33.188C338.13 33.7773 336.882 34.072 335.426 34.072C333.485 34.072 331.873 33.6127 330.59 32.694C329.308 31.7927 328.58 30.562 328.406 29.002H331.344C331.57 29.7473 332.046 30.3453 332.774 30.796C333.52 31.264 334.404 31.498 335.426 31.498C336.622 31.498 337.584 31.134 338.312 30.406C339.058 29.678 339.43 28.6207 339.43 27.234V24.842C338.928 25.518 338.243 26.09 337.376 26.558C336.527 27.0087 335.556 27.234 334.464 27.234C333.216 27.234 332.072 26.922 331.032 26.298C330.01 25.6567 329.195 24.7727 328.588 23.646C327.999 22.502 327.704 21.2107 327.704 19.772C327.704 18.3333 327.999 17.0593 328.588 15.95C329.195 14.8407 330.01 13.9827 331.032 13.376C332.072 12.752 333.216 12.44 334.464 12.44ZM339.43 19.824C339.43 18.836 339.222 17.978 338.806 17.25C338.408 16.522 337.879 15.9673 337.22 15.586C336.562 15.2047 335.851 15.014 335.088 15.014C334.326 15.014 333.615 15.2047 332.956 15.586C332.298 15.95 331.76 16.496 331.344 17.224C330.946 17.9347 330.746 18.784 330.746 19.772C330.746 20.76 330.946 21.6267 331.344 22.372C331.76 23.1173 332.298 23.6893 332.956 24.088C333.632 24.4693 334.343 24.66 335.088 24.66C335.851 24.66 336.562 24.4693 337.22 24.088C337.879 23.7067 338.408 23.152 338.806 22.424C339.222 21.6787 339.43 20.812 339.43 19.824ZM30.6503 63.234C29.2983 63.234 28.0763 62.9307 26.9843 62.324C25.8923 61.7 25.0343 60.8333 24.4103 59.724C23.7863 58.5973 23.4743 57.2973 23.4743 55.824C23.4743 54.368 23.795 53.0767 24.4363 51.95C25.0777 50.8233 25.953 49.9567 27.0623 49.35C28.1717 48.7433 29.411 48.44 30.7803 48.44C32.1497 48.44 33.389 48.7433 34.4983 49.35C35.6077 49.9567 36.483 50.8233 37.1243 51.95C37.7657 53.0767 38.0863 54.368 38.0863 55.824C38.0863 57.28 37.757 58.5713 37.0983 59.698C36.4397 60.8247 35.5383 61.7 34.3943 62.324C33.2677 62.9307 32.0197 63.234 30.6503 63.234ZM30.6503 60.66C31.413 60.66 32.1237 60.478 32.7823 60.114C33.4583 59.75 34.0043 59.204 34.4203 58.476C34.8363 57.748 35.0443 56.864 35.0443 55.824C35.0443 54.784 34.845 53.9087 34.4463 53.198C34.0477 52.47 33.519 51.924 32.8603 51.56C32.2017 51.196 31.491 51.014 30.7283 51.014C29.9657 51.014 29.255 51.196 28.5963 51.56C27.955 51.924 27.4437 52.47 27.0623 53.198C26.681 53.9087 26.4903 54.784 26.4903 55.824C26.4903 57.3667 26.8803 58.5627 27.6603 59.412C28.4577 60.244 29.4543 60.66 30.6503 60.66ZM48.2444 48.44C49.3711 48.44 50.3764 48.674 51.2604 49.142C52.1617 49.61 52.8637 50.3033 53.3664 51.222C53.8691 52.1407 54.1204 53.25 54.1204 54.55V63H51.1824V54.992C51.1824 53.7093 50.8617 52.73 50.2204 52.054C49.5791 51.3607 48.7037 51.014 47.5944 51.014C46.4851 51.014 45.6011 51.3607 44.9424 52.054C44.3011 52.73 43.9804 53.7093 43.9804 54.992V63H41.0164V48.674H43.9804V50.312C44.4657 49.7227 45.0811 49.2633 45.8264 48.934C46.5891 48.6047 47.3951 48.44 48.2444 48.44ZM70.8691 63.234C69.5171 63.234 68.2951 62.9307 67.2031 62.324C66.1111 61.7 65.2531 60.8333 64.6291 59.724C64.0051 58.5973 63.6931 57.2973 63.6931 55.824C63.6931 54.368 64.0137 53.0767 64.6551 51.95C65.2964 50.8233 66.1717 49.9567 67.2811 49.35C68.3904 48.7433 69.6297 48.44 70.9991 48.44C72.3684 48.44 73.6077 48.7433 74.7171 49.35C75.8264 49.9567 76.7017 50.8233 77.3431 51.95C77.9844 53.0767 78.3051 54.368 78.3051 55.824C78.3051 57.28 77.9757 58.5713 77.3171 59.698C76.6584 60.8247 75.7571 61.7 74.6131 62.324C73.4864 62.9307 72.2384 63.234 70.8691 63.234ZM70.8691 60.66C71.6317 60.66 72.3424 60.478 73.0011 60.114C73.6771 59.75 74.2231 59.204 74.6391 58.476C75.0551 57.748 75.2631 56.864 75.2631 55.824C75.2631 54.784 75.0637 53.9087 74.6651 53.198C74.2664 52.47 73.7377 51.924 73.0791 51.56C72.4204 51.196 71.7097 51.014 70.9471 51.014C70.1844 51.014 69.4737 51.196 68.8151 51.56C68.1737 51.924 67.6624 52.47 67.2811 53.198C66.8997 53.9087 66.7091 54.784 66.7091 55.824C66.7091 57.3667 67.0991 58.5627 67.8791 59.412C68.6764 60.244 69.6731 60.66 70.8691 60.66ZM94.2092 48.674V63H91.2452V61.31C90.7772 61.8993 90.1618 62.3673 89.3992 62.714C88.6538 63.0433 87.8565 63.208 87.0072 63.208C85.8805 63.208 84.8665 62.974 83.9652 62.506C83.0812 62.038 82.3792 61.3447 81.8592 60.426C81.3565 59.5073 81.1052 58.398 81.1052 57.098V48.674H84.0432V56.656C84.0432 57.9387 84.3638 58.9267 85.0052 59.62C85.6465 60.296 86.5218 60.634 87.6312 60.634C88.7405 60.634 89.6158 60.296 90.2572 59.62C90.9158 58.9267 91.2452 57.9387 91.2452 56.656V48.674H94.2092ZM101.084 50.754C101.517 50.026 102.089 49.4627 102.8 49.064C103.528 48.648 104.386 48.44 105.374 48.44V51.508H104.62C103.459 51.508 102.575 51.8027 101.968 52.392C101.379 52.9813 101.084 54.004 101.084 55.46V63H98.1199V48.674H101.084V50.754ZM113.864 55.772C113.864 54.3333 114.159 53.0593 114.748 51.95C115.355 50.8407 116.17 49.9827 117.192 49.376C118.232 48.752 119.385 48.44 120.65 48.44C121.586 48.44 122.505 48.648 123.406 49.064C124.325 49.4627 125.053 50 125.59 50.676V43.76H128.58V63H125.59V60.842C125.105 61.5353 124.429 62.1073 123.562 62.558C122.713 63.0087 121.734 63.234 120.624 63.234C119.376 63.234 118.232 62.922 117.192 62.298C116.17 61.6567 115.355 60.7727 114.748 59.646C114.159 58.502 113.864 57.2107 113.864 55.772ZM125.59 55.824C125.59 54.836 125.382 53.978 124.966 53.25C124.568 52.522 124.039 51.9673 123.38 51.586C122.722 51.2047 122.011 51.014 121.248 51.014C120.486 51.014 119.775 51.2047 119.116 51.586C118.458 51.95 117.92 52.496 117.504 53.224C117.106 53.9347 116.906 54.784 116.906 55.772C116.906 56.76 117.106 57.6267 117.504 58.372C117.92 59.1173 118.458 59.6893 119.116 60.088C119.792 60.4693 120.503 60.66 121.248 60.66C122.011 60.66 122.722 60.4693 123.38 60.088C124.039 59.7067 124.568 59.152 124.966 58.424C125.382 57.6787 125.59 56.812 125.59 55.824ZM145.603 55.486C145.603 56.0233 145.569 56.5087 145.499 56.942H134.553C134.64 58.086 135.065 59.0047 135.827 59.698C136.59 60.3913 137.526 60.738 138.635 60.738C140.23 60.738 141.357 60.0707 142.015 58.736H145.213C144.78 60.0533 143.991 61.1367 142.847 61.986C141.721 62.818 140.317 63.234 138.635 63.234C137.266 63.234 136.035 62.9307 134.943 62.324C133.869 61.7 133.019 60.8333 132.395 59.724C131.789 58.5973 131.485 57.2973 131.485 55.824C131.485 54.3507 131.78 53.0593 132.369 51.95C132.976 50.8233 133.817 49.9567 134.891 49.35C135.983 48.7433 137.231 48.44 138.635 48.44C139.987 48.44 141.192 48.7347 142.249 49.324C143.307 49.9133 144.13 50.7453 144.719 51.82C145.309 52.8773 145.603 54.0993 145.603 55.486ZM142.509 54.55C142.492 53.458 142.102 52.5827 141.339 51.924C140.577 51.2653 139.632 50.936 138.505 50.936C137.483 50.936 136.607 51.2653 135.879 51.924C135.151 52.5653 134.718 53.4407 134.579 54.55H142.509ZM153.72 63.234C152.594 63.234 151.58 63.0347 150.678 62.636C149.794 62.22 149.092 61.6653 148.572 60.972C148.052 60.2613 147.775 59.4727 147.74 58.606H150.808C150.86 59.2127 151.146 59.724 151.666 60.14C152.204 60.5387 152.871 60.738 153.668 60.738C154.5 60.738 155.142 60.582 155.592 60.27C156.06 59.9407 156.294 59.5247 156.294 59.022C156.294 58.4847 156.034 58.086 155.514 57.826C155.012 57.566 154.206 57.28 153.096 56.968C152.022 56.6733 151.146 56.3873 150.47 56.11C149.794 55.8327 149.205 55.408 148.702 54.836C148.217 54.264 147.974 53.51 147.974 52.574C147.974 51.8113 148.2 51.118 148.65 50.494C149.101 49.8527 149.742 49.35 150.574 48.986C151.424 48.622 152.394 48.44 153.486 48.44C155.116 48.44 156.424 48.856 157.412 49.688C158.418 50.5027 158.955 51.6207 159.024 53.042H156.06C156.008 52.4007 155.748 51.8893 155.28 51.508C154.812 51.1267 154.18 50.936 153.382 50.936C152.602 50.936 152.004 51.0833 151.588 51.378C151.172 51.6727 150.964 52.0627 150.964 52.548C150.964 52.9293 151.103 53.25 151.38 53.51C151.658 53.77 151.996 53.978 152.394 54.134C152.793 54.2727 153.382 54.4547 154.162 54.68C155.202 54.9573 156.052 55.2433 156.71 55.538C157.386 55.8153 157.967 56.2313 158.452 56.786C158.938 57.3407 159.189 58.0773 159.206 58.996C159.206 59.8107 158.981 60.5387 158.53 61.18C158.08 61.8213 157.438 62.324 156.606 62.688C155.792 63.052 154.83 63.234 153.72 63.234ZM168.077 55.85L174.681 63H170.677L165.373 56.838V63H162.409V43.76H165.373V54.94L170.573 48.674H174.681L168.077 55.85ZM180.263 51.092V59.022C180.263 59.5593 180.385 59.9493 180.627 60.192C180.887 60.4173 181.321 60.53 181.927 60.53H183.747V63H181.407C180.073 63 179.05 62.688 178.339 62.064C177.629 61.44 177.273 60.426 177.273 59.022V51.092H175.583V48.674H177.273V45.112H180.263V48.674H183.747V51.092H180.263ZM192.693 63.234C191.341 63.234 190.119 62.9307 189.027 62.324C187.935 61.7 187.077 60.8333 186.453 59.724C185.829 58.5973 185.517 57.2973 185.517 55.824C185.517 54.368 185.838 53.0767 186.479 51.95C187.121 50.8233 187.996 49.9567 189.105 49.35C190.215 48.7433 191.454 48.44 192.823 48.44C194.193 48.44 195.432 48.7433 196.541 49.35C197.651 49.9567 198.526 50.8233 199.167 51.95C199.809 53.0767 200.129 54.368 200.129 55.824C200.129 57.28 199.8 58.5713 199.141 59.698C198.483 60.8247 197.581 61.7 196.437 62.324C195.311 62.9307 194.063 63.234 192.693 63.234ZM192.693 60.66C193.456 60.66 194.167 60.478 194.825 60.114C195.501 59.75 196.047 59.204 196.463 58.476C196.879 57.748 197.087 56.864 197.087 55.824C197.087 54.784 196.888 53.9087 196.489 53.198C196.091 52.47 195.562 51.924 194.903 51.56C194.245 51.196 193.534 51.014 192.771 51.014C192.009 51.014 191.298 51.196 190.639 51.56C189.998 51.924 189.487 52.47 189.105 53.198C188.724 53.9087 188.533 54.784 188.533 55.824C188.533 57.3667 188.923 58.5627 189.703 59.412C190.501 60.244 191.497 60.66 192.693 60.66ZM206.023 50.78C206.526 50.1213 207.211 49.5667 208.077 49.116C208.944 48.6653 209.923 48.44 211.015 48.44C212.263 48.44 213.399 48.752 214.421 49.376C215.461 49.9827 216.276 50.8407 216.865 51.95C217.455 53.0593 217.749 54.3333 217.749 55.772C217.749 57.2107 217.455 58.502 216.865 59.646C216.276 60.7727 215.461 61.6567 214.421 62.298C213.399 62.922 212.263 63.234 211.015 63.234C209.923 63.234 208.953 63.0173 208.103 62.584C207.254 62.1333 206.561 61.5787 206.023 60.92V69.812H203.059V48.674H206.023V50.78ZM214.733 55.772C214.733 54.784 214.525 53.9347 214.109 53.224C213.711 52.496 213.173 51.95 212.497 51.586C211.839 51.2047 211.128 51.014 210.365 51.014C209.62 51.014 208.909 51.2047 208.233 51.586C207.575 51.9673 207.037 52.522 206.621 53.25C206.223 53.978 206.023 54.836 206.023 55.824C206.023 56.812 206.223 57.6787 206.621 58.424C207.037 59.152 207.575 59.7067 208.233 60.088C208.909 60.4693 209.62 60.66 210.365 60.66C211.128 60.66 211.839 60.4693 212.497 60.088C213.173 59.6893 213.711 59.1173 214.109 58.372C214.525 57.6267 214.733 56.76 214.733 55.772ZM232.972 60.348L237.028 48.674H240.174L234.714 63H231.178L225.744 48.674H228.916L232.972 60.348ZM255.545 55.486C255.545 56.0233 255.51 56.5087 255.441 56.942H244.495C244.582 58.086 245.006 59.0047 245.769 59.698C246.532 60.3913 247.468 60.738 248.577 60.738C250.172 60.738 251.298 60.0707 251.957 58.736H255.155C254.722 60.0533 253.933 61.1367 252.789 61.986C251.662 62.818 250.258 63.234 248.577 63.234C247.208 63.234 245.977 62.9307 244.885 62.324C243.81 61.7 242.961 60.8333 242.337 59.724C241.73 58.5973 241.427 57.2973 241.427 55.824C241.427 54.3507 241.722 53.0593 242.311 51.95C242.918 50.8233 243.758 49.9567 244.833 49.35C245.925 48.7433 247.173 48.44 248.577 48.44C249.929 48.44 251.134 48.7347 252.191 49.324C253.248 49.9133 254.072 50.7453 254.661 51.82C255.25 52.8773 255.545 54.0993 255.545 55.486ZM252.451 54.55C252.434 53.458 252.044 52.5827 251.281 51.924C250.518 51.2653 249.574 50.936 248.447 50.936C247.424 50.936 246.549 51.2653 245.821 51.924C245.093 52.5653 244.66 53.4407 244.521 54.55H252.451ZM261.426 50.754C261.859 50.026 262.431 49.4627 263.142 49.064C263.87 48.648 264.728 48.44 265.716 48.44V51.508H264.962C263.8 51.508 262.916 51.8027 262.31 52.392C261.72 52.9813 261.426 54.004 261.426 55.46V63H258.462V48.674H261.426V50.754ZM273.64 63.234C272.514 63.234 271.5 63.0347 270.598 62.636C269.714 62.22 269.012 61.6653 268.492 60.972C267.972 60.2613 267.695 59.4727 267.66 58.606H270.728C270.78 59.2127 271.066 59.724 271.586 60.14C272.124 60.5387 272.791 60.738 273.588 60.738C274.42 60.738 275.062 60.582 275.512 60.27C275.98 59.9407 276.214 59.5247 276.214 59.022C276.214 58.4847 275.954 58.086 275.434 57.826C274.932 57.566 274.126 57.28 273.016 56.968C271.942 56.6733 271.066 56.3873 270.39 56.11C269.714 55.8327 269.125 55.408 268.622 54.836C268.137 54.264 267.894 53.51 267.894 52.574C267.894 51.8113 268.12 51.118 268.57 50.494C269.021 49.8527 269.662 49.35 270.494 48.986C271.344 48.622 272.314 48.44 273.406 48.44C275.036 48.44 276.344 48.856 277.332 49.688C278.338 50.5027 278.875 51.6207 278.944 53.042H275.98C275.928 52.4007 275.668 51.8893 275.2 51.508C274.732 51.1267 274.1 50.936 273.302 50.936C272.522 50.936 271.924 51.0833 271.508 51.378C271.092 51.6727 270.884 52.0627 270.884 52.548C270.884 52.9293 271.023 53.25 271.3 53.51C271.578 53.77 271.916 53.978 272.314 54.134C272.713 54.2727 273.302 54.4547 274.082 54.68C275.122 54.9573 275.972 55.2433 276.63 55.538C277.306 55.8153 277.887 56.2313 278.372 56.786C278.858 57.3407 279.109 58.0773 279.126 58.996C279.126 59.8107 278.901 60.5387 278.45 61.18C278 61.8213 277.358 62.324 276.526 62.688C275.712 63.052 274.75 63.234 273.64 63.234ZM283.837 46.776C283.3 46.776 282.849 46.594 282.485 46.23C282.121 45.866 281.939 45.4153 281.939 44.878C281.939 44.3407 282.121 43.89 282.485 43.526C282.849 43.162 283.3 42.98 283.837 42.98C284.357 42.98 284.799 43.162 285.163 43.526C285.527 43.89 285.709 44.3407 285.709 44.878C285.709 45.4153 285.527 45.866 285.163 46.23C284.799 46.594 284.357 46.776 283.837 46.776ZM285.293 48.674V63H282.329V48.674H285.293ZM295.398 63.234C294.046 63.234 292.824 62.9307 291.732 62.324C290.64 61.7 289.782 60.8333 289.158 59.724C288.534 58.5973 288.222 57.2973 288.222 55.824C288.222 54.368 288.543 53.0767 289.184 51.95C289.826 50.8233 290.701 49.9567 291.81 49.35C292.92 48.7433 294.159 48.44 295.528 48.44C296.898 48.44 298.137 48.7433 299.246 49.35C300.356 49.9567 301.231 50.8233 301.872 51.95C302.514 53.0767 302.834 54.368 302.834 55.824C302.834 57.28 302.505 58.5713 301.846 59.698C301.188 60.8247 300.286 61.7 299.142 62.324C298.016 62.9307 296.768 63.234 295.398 63.234ZM295.398 60.66C296.161 60.66 296.872 60.478 297.53 60.114C298.206 59.75 298.752 59.204 299.168 58.476C299.584 57.748 299.792 56.864 299.792 55.824C299.792 54.784 299.593 53.9087 299.194 53.198C298.796 52.47 298.267 51.924 297.608 51.56C296.95 51.196 296.239 51.014 295.476 51.014C294.714 51.014 294.003 51.196 293.344 51.56C292.703 51.924 292.192 52.47 291.81 53.198C291.429 53.9087 291.238 54.784 291.238 55.824C291.238 57.3667 291.628 58.5627 292.408 59.412C293.206 60.244 294.202 60.66 295.398 60.66ZM312.992 48.44C314.119 48.44 315.124 48.674 316.008 49.142C316.91 49.61 317.612 50.3033 318.114 51.222C318.617 52.1407 318.868 53.25 318.868 54.55V63H315.93V54.992C315.93 53.7093 315.61 52.73 314.968 52.054C314.327 51.3607 313.452 51.014 312.342 51.014C311.233 51.014 310.349 51.3607 309.69 52.054C309.049 52.73 308.728 53.7093 308.728 54.992V63H305.764V48.674H308.728V50.312C309.214 49.7227 309.829 49.2633 310.574 48.934C311.337 48.6047 312.143 48.44 312.992 48.44ZM323.845 63.182C323.308 63.182 322.857 63 322.493 62.636C322.129 62.272 321.947 61.8213 321.947 61.284C321.947 60.7467 322.129 60.296 322.493 59.932C322.857 59.568 323.308 59.386 323.845 59.386C324.365 59.386 324.807 59.568 325.171 59.932C325.535 60.296 325.717 60.7467 325.717 61.284C325.717 61.8213 325.535 62.272 325.171 62.636C324.807 63 324.365 63.182 323.845 63.182ZM330.117 63.182C329.579 63.182 329.129 63 328.765 62.636C328.401 62.272 328.219 61.8213 328.219 61.284C328.219 60.7467 328.401 60.296 328.765 59.932C329.129 59.568 329.579 59.386 330.117 59.386C330.637 59.386 331.079 59.568 331.443 59.932C331.807 60.296 331.989 60.7467 331.989 61.284C331.989 61.8213 331.807 62.272 331.443 62.636C331.079 63 330.637 63.182 330.117 63.182ZM336.388 63.182C335.851 63.182 335.4 63 335.036 62.636C334.672 62.272 334.49 61.8213 334.49 61.284C334.49 60.7467 334.672 60.296 335.036 59.932C335.4 59.568 335.851 59.386 336.388 59.386C336.908 59.386 337.35 59.568 337.714 59.932C338.078 60.296 338.26 60.7467 338.26 61.284C338.26 61.8213 338.078 62.272 337.714 62.636C337.35 63 336.908 63.182 336.388 63.182ZM17.877 158.312C17.877 159.231 17.6603 160.097 17.227 160.912C16.7937 161.727 16.1003 162.394 15.147 162.914C14.1937 163.417 12.9717 163.668 11.481 163.668H8.20502V171H5.24102V152.93H11.481C12.8677 152.93 14.0377 153.173 14.991 153.658C15.9617 154.126 16.681 154.767 17.149 155.582C17.6344 156.397 17.877 157.307 17.877 158.312ZM11.481 161.25C12.6077 161.25 13.4483 160.999 14.003 160.496C14.5577 159.976 14.835 159.248 14.835 158.312C14.835 156.336 13.717 155.348 11.481 155.348H8.20502V161.25H11.481ZM23.6679 151.76V171H20.7039V151.76H23.6679ZM40.6894 163.486C40.6894 164.023 40.6547 164.509 40.5854 164.942H29.6394C29.726 166.086 30.1507 167.005 30.9134 167.698C31.676 168.391 32.612 168.738 33.7214 168.738C35.316 168.738 36.4427 168.071 37.1014 166.736H40.2994C39.866 168.053 39.0774 169.137 37.9334 169.986C36.8067 170.818 35.4027 171.234 33.7214 171.234C32.352 171.234 31.1214 170.931 30.0294 170.324C28.9547 169.7 28.1054 168.833 27.4814 167.724C26.8747 166.597 26.5714 165.297 26.5714 163.824C26.5714 162.351 26.866 161.059 27.4554 159.95C28.062 158.823 28.9027 157.957 29.9774 157.35C31.0694 156.743 32.3174 156.44 33.7214 156.44C35.0734 156.44 36.278 156.735 37.3354 157.324C38.3927 157.913 39.216 158.745 39.8054 159.82C40.3947 160.877 40.6894 162.099 40.6894 163.486ZM37.5954 162.55C37.578 161.458 37.188 160.583 36.4254 159.924C35.6627 159.265 34.718 158.936 33.5914 158.936C32.5687 158.936 31.6934 159.265 30.9654 159.924C30.2374 160.565 29.804 161.441 29.6654 162.55H37.5954ZM42.6183 163.772C42.6183 162.333 42.9129 161.059 43.5023 159.95C44.1089 158.841 44.9236 157.983 45.9463 157.376C46.9863 156.752 48.1303 156.44 49.3783 156.44C50.5049 156.44 51.4843 156.665 52.3163 157.116C53.1656 157.549 53.8416 158.095 54.3443 158.754V156.674H57.3343V171H54.3443V168.868C53.8416 169.544 53.1569 170.107 52.2903 170.558C51.4236 171.009 50.4356 171.234 49.3263 171.234C48.0956 171.234 46.9689 170.922 45.9463 170.298C44.9236 169.657 44.1089 168.773 43.5023 167.646C42.9129 166.502 42.6183 165.211 42.6183 163.772ZM54.3443 163.824C54.3443 162.836 54.1363 161.978 53.7203 161.25C53.3216 160.522 52.7929 159.967 52.1343 159.586C51.4756 159.205 50.7649 159.014 50.0023 159.014C49.2396 159.014 48.5289 159.205 47.8703 159.586C47.2116 159.95 46.6743 160.496 46.2583 161.224C45.8596 161.935 45.6603 162.784 45.6603 163.772C45.6603 164.76 45.8596 165.627 46.2583 166.372C46.6743 167.117 47.2116 167.689 47.8703 168.088C48.5463 168.469 49.2569 168.66 50.0023 168.66C50.7649 168.66 51.4756 168.469 52.1343 168.088C52.7929 167.707 53.3216 167.152 53.7203 166.424C54.1363 165.679 54.3443 164.812 54.3443 163.824ZM66.4273 171.234C65.3007 171.234 64.2867 171.035 63.3853 170.636C62.5013 170.22 61.7993 169.665 61.2793 168.972C60.7593 168.261 60.482 167.473 60.4473 166.606H63.5153C63.5673 167.213 63.8533 167.724 64.3733 168.14C64.9107 168.539 65.578 168.738 66.3753 168.738C67.2073 168.738 67.8487 168.582 68.2993 168.27C68.7673 167.941 69.0013 167.525 69.0013 167.022C69.0013 166.485 68.7413 166.086 68.2213 165.826C67.7187 165.566 66.9127 165.28 65.8033 164.968C64.7287 164.673 63.8533 164.387 63.1773 164.11C62.5013 163.833 61.912 163.408 61.4093 162.836C60.924 162.264 60.6813 161.51 60.6813 160.574C60.6813 159.811 60.9067 159.118 61.3573 158.494C61.808 157.853 62.4493 157.35 63.2813 156.986C64.1307 156.622 65.1013 156.44 66.1933 156.44C67.8227 156.44 69.1313 156.856 70.1193 157.688C71.1247 158.503 71.662 159.621 71.7313 161.042H68.7673C68.7153 160.401 68.4553 159.889 67.9873 159.508C67.5193 159.127 66.8867 158.936 66.0893 158.936C65.3093 158.936 64.7113 159.083 64.2953 159.378C63.8793 159.673 63.6713 160.063 63.6713 160.548C63.6713 160.929 63.81 161.25 64.0873 161.51C64.3647 161.77 64.7027 161.978 65.1013 162.134C65.5 162.273 66.0893 162.455 66.8693 162.68C67.9093 162.957 68.7587 163.243 69.4173 163.538C70.0933 163.815 70.674 164.231 71.1593 164.786C71.6447 165.341 71.896 166.077 71.9133 166.996C71.9133 167.811 71.688 168.539 71.2373 169.18C70.7867 169.821 70.1453 170.324 69.3133 170.688C68.4987 171.052 67.5367 171.234 66.4273 171.234ZM88.246 163.486C88.246 164.023 88.2114 164.509 88.142 164.942H77.196C77.2827 166.086 77.7073 167.005 78.47 167.698C79.2327 168.391 80.1687 168.738 81.278 168.738C82.8727 168.738 83.9993 168.071 84.658 166.736H87.856C87.4227 168.053 86.634 169.137 85.49 169.986C84.3633 170.818 82.9593 171.234 81.278 171.234C79.9087 171.234 78.678 170.931 77.586 170.324C76.5113 169.7 75.662 168.833 75.038 167.724C74.4313 166.597 74.128 165.297 74.128 163.824C74.128 162.351 74.4227 161.059 75.012 159.95C75.6187 158.823 76.4593 157.957 77.534 157.35C78.626 156.743 79.874 156.44 81.278 156.44C82.63 156.44 83.8347 156.735 84.892 157.324C85.9493 157.913 86.7727 158.745 87.362 159.82C87.9513 160.877 88.246 162.099 88.246 163.486ZM85.152 162.55C85.1347 161.458 84.7447 160.583 83.982 159.924C83.2193 159.265 82.2747 158.936 81.148 158.936C80.1253 158.936 79.25 159.265 78.522 159.924C77.794 160.565 77.3607 161.441 77.222 162.55H85.152ZM101.375 159.092V167.022C101.375 167.559 101.496 167.949 101.739 168.192C101.999 168.417 102.432 168.53 103.039 168.53H104.859V171H102.519C101.184 171 100.161 170.688 99.4508 170.064C98.7401 169.44 98.3848 168.426 98.3848 167.022V159.092H96.6948V156.674H98.3848V153.112H101.375V156.674H104.859V159.092H101.375ZM110.555 158.754C110.988 158.026 111.56 157.463 112.271 157.064C112.999 156.648 113.857 156.44 114.845 156.44V159.508H114.091C112.929 159.508 112.045 159.803 111.439 160.392C110.849 160.981 110.555 162.004 110.555 163.46V171H107.591V156.674H110.555V158.754ZM130.465 156.674L121.677 177.734H118.609L121.521 170.766L115.879 156.674H119.181L123.211 167.594L127.397 156.674H130.465ZM140.964 154.776C140.427 154.776 139.976 154.594 139.612 154.23C139.248 153.866 139.066 153.415 139.066 152.878C139.066 152.341 139.248 151.89 139.612 151.526C139.976 151.162 140.427 150.98 140.964 150.98C141.484 150.98 141.926 151.162 142.29 151.526C142.654 151.89 142.836 152.341 142.836 152.878C142.836 153.415 142.654 153.866 142.29 154.23C141.926 154.594 141.484 154.776 140.964 154.776ZM142.42 156.674V171H139.456V156.674H142.42ZM149.769 159.092V167.022C149.769 167.559 149.891 167.949 150.133 168.192C150.393 168.417 150.827 168.53 151.433 168.53H153.253V171H150.913C149.579 171 148.556 170.688 147.845 170.064C147.135 169.44 146.779 168.426 146.779 167.022V159.092H145.089V156.674H146.779V153.112H149.769V156.674H153.253V159.092H149.769ZM168.953 171.234C167.601 171.234 166.379 170.931 165.287 170.324C164.195 169.7 163.337 168.833 162.713 167.724C162.089 166.597 161.777 165.297 161.777 163.824C161.777 162.368 162.098 161.077 162.739 159.95C163.38 158.823 164.256 157.957 165.365 157.35C166.474 156.743 167.714 156.44 169.083 156.44C170.452 156.44 171.692 156.743 172.801 157.35C173.91 157.957 174.786 158.823 175.427 159.95C176.068 161.077 176.389 162.368 176.389 163.824C176.389 165.28 176.06 166.571 175.401 167.698C174.742 168.825 173.841 169.7 172.697 170.324C171.57 170.931 170.322 171.234 168.953 171.234ZM168.953 168.66C169.716 168.66 170.426 168.478 171.085 168.114C171.761 167.75 172.307 167.204 172.723 166.476C173.139 165.748 173.347 164.864 173.347 163.824C173.347 162.784 173.148 161.909 172.749 161.198C172.35 160.47 171.822 159.924 171.163 159.56C170.504 159.196 169.794 159.014 169.031 159.014C168.268 159.014 167.558 159.196 166.899 159.56C166.258 159.924 165.746 160.47 165.365 161.198C164.984 161.909 164.793 162.784 164.793 163.824C164.793 165.367 165.183 166.563 165.963 167.412C166.76 168.244 167.757 168.66 168.953 168.66ZM186.547 156.44C187.674 156.44 188.679 156.674 189.563 157.142C190.464 157.61 191.166 158.303 191.669 159.222C192.172 160.141 192.423 161.25 192.423 162.55V171H189.485V162.992C189.485 161.709 189.164 160.73 188.523 160.054C187.882 159.361 187.006 159.014 185.897 159.014C184.788 159.014 183.904 159.361 183.245 160.054C182.604 160.73 182.283 161.709 182.283 162.992V171H179.319V156.674H182.283V158.312C182.768 157.723 183.384 157.263 184.129 156.934C184.892 156.605 185.698 156.44 186.547 156.44ZM215.854 156.674L207.066 177.734H203.998L206.91 170.766L201.268 156.674H204.57L208.6 167.594L212.786 156.674H215.854ZM224.305 171.234C222.953 171.234 221.731 170.931 220.639 170.324C219.547 169.7 218.689 168.833 218.065 167.724C217.441 166.597 217.129 165.297 217.129 163.824C217.129 162.368 217.449 161.077 218.091 159.95C218.732 158.823 219.607 157.957 220.717 157.35C221.826 156.743 223.065 156.44 224.435 156.44C225.804 156.44 227.043 156.743 228.153 157.35C229.262 157.957 230.137 158.823 230.779 159.95C231.42 161.077 231.741 162.368 231.741 163.824C231.741 165.28 231.411 166.571 230.753 167.698C230.094 168.825 229.193 169.7 228.049 170.324C226.922 170.931 225.674 171.234 224.305 171.234ZM224.305 168.66C225.067 168.66 225.778 168.478 226.437 168.114C227.113 167.75 227.659 167.204 228.075 166.476C228.491 165.748 228.699 164.864 228.699 163.824C228.699 162.784 228.499 161.909 228.101 161.198C227.702 160.47 227.173 159.924 226.515 159.56C225.856 159.196 225.145 159.014 224.383 159.014C223.62 159.014 222.909 159.196 222.251 159.56C221.609 159.924 221.098 160.47 220.717 161.198C220.335 161.909 220.145 162.784 220.145 163.824C220.145 165.367 220.535 166.563 221.315 167.412C222.112 168.244 223.109 168.66 224.305 168.66ZM247.645 156.674V171H244.681V169.31C244.213 169.899 243.597 170.367 242.835 170.714C242.089 171.043 241.292 171.208 240.443 171.208C239.316 171.208 238.302 170.974 237.401 170.506C236.517 170.038 235.815 169.345 235.295 168.426C234.792 167.507 234.541 166.398 234.541 165.098V156.674H237.479V164.656C237.479 165.939 237.799 166.927 238.441 167.62C239.082 168.296 239.957 168.634 241.067 168.634C242.176 168.634 243.051 168.296 243.693 167.62C244.351 166.927 244.681 165.939 244.681 164.656V156.674H247.645ZM254.519 158.754C254.953 158.026 255.525 157.463 256.235 157.064C256.963 156.648 257.821 156.44 258.809 156.44V159.508H258.055C256.894 159.508 256.01 159.803 255.403 160.392C254.814 160.981 254.519 162.004 254.519 163.46V171H251.555V156.674H254.519V158.754ZM271.252 158.78C271.755 158.121 272.439 157.567 273.306 157.116C274.173 156.665 275.152 156.44 276.244 156.44C277.492 156.44 278.627 156.752 279.65 157.376C280.69 157.983 281.505 158.841 282.094 159.95C282.683 161.059 282.978 162.333 282.978 163.772C282.978 165.211 282.683 166.502 282.094 167.646C281.505 168.773 280.69 169.657 279.65 170.298C278.627 170.922 277.492 171.234 276.244 171.234C275.152 171.234 274.181 171.017 273.332 170.584C272.483 170.133 271.789 169.579 271.252 168.92V177.812H268.288V156.674H271.252V158.78ZM279.962 163.772C279.962 162.784 279.754 161.935 279.338 161.224C278.939 160.496 278.402 159.95 277.726 159.586C277.067 159.205 276.357 159.014 275.594 159.014C274.849 159.014 274.138 159.205 273.462 159.586C272.803 159.967 272.266 160.522 271.85 161.25C271.451 161.978 271.252 162.836 271.252 163.824C271.252 164.812 271.451 165.679 271.85 166.424C272.266 167.152 272.803 167.707 273.462 168.088C274.138 168.469 274.849 168.66 275.594 168.66C276.357 168.66 277.067 168.469 277.726 168.088C278.402 167.689 278.939 167.117 279.338 166.372C279.754 165.627 279.962 164.76 279.962 163.772ZM293.319 156.44C294.411 156.44 295.382 156.674 296.231 157.142C297.098 157.61 297.774 158.303 298.259 159.222C298.762 160.141 299.013 161.25 299.013 162.55V171H296.075V162.992C296.075 161.709 295.754 160.73 295.113 160.054C294.472 159.361 293.596 159.014 292.487 159.014C291.378 159.014 290.494 159.361 289.835 160.054C289.194 160.73 288.873 161.709 288.873 162.992V171H285.909V151.76H288.873V158.338C289.376 157.731 290.008 157.263 290.771 156.934C291.551 156.605 292.4 156.44 293.319 156.44ZM309.008 171.234C307.656 171.234 306.434 170.931 305.342 170.324C304.25 169.7 303.392 168.833 302.768 167.724C302.144 166.597 301.832 165.297 301.832 163.824C301.832 162.368 302.152 161.077 302.794 159.95C303.435 158.823 304.31 157.957 305.42 157.35C306.529 156.743 307.768 156.44 309.138 156.44C310.507 156.44 311.746 156.743 312.856 157.35C313.965 157.957 314.84 158.823 315.482 159.95C316.123 161.077 316.444 162.368 316.444 163.824C316.444 165.28 316.114 166.571 315.456 167.698C314.797 168.825 313.896 169.7 312.752 170.324C311.625 170.931 310.377 171.234 309.008 171.234ZM309.008 168.66C309.77 168.66 310.481 168.478 311.14 168.114C311.816 167.75 312.362 167.204 312.778 166.476C313.194 165.748 313.402 164.864 313.402 163.824C313.402 162.784 313.202 161.909 312.804 161.198C312.405 160.47 311.876 159.924 311.218 159.56C310.559 159.196 309.848 159.014 309.086 159.014C308.323 159.014 307.612 159.196 306.954 159.56C306.312 159.924 305.801 160.47 305.42 161.198C305.038 161.909 304.848 162.784 304.848 163.824C304.848 165.367 305.238 166.563 306.018 167.412C306.815 168.244 307.812 168.66 309.008 168.66ZM326.602 156.44C327.728 156.44 328.734 156.674 329.618 157.142C330.519 157.61 331.221 158.303 331.724 159.222C332.226 160.141 332.478 161.25 332.478 162.55V171H329.54V162.992C329.54 161.709 329.219 160.73 328.578 160.054C327.936 159.361 327.061 159.014 325.952 159.014C324.842 159.014 323.958 159.361 323.3 160.054C322.658 160.73 322.338 161.709 322.338 162.992V171H319.374V156.674H322.338V158.312C322.823 157.723 323.438 157.263 324.184 156.934C324.946 156.605 325.752 156.44 326.602 156.44ZM349.389 163.486C349.389 164.023 349.354 164.509 349.285 164.942H338.339C338.425 166.086 338.85 167.005 339.613 167.698C340.375 168.391 341.311 168.738 342.421 168.738C344.015 168.738 345.142 168.071 345.801 166.736H348.999C348.565 168.053 347.777 169.137 346.633 169.986C345.506 170.818 344.102 171.234 342.421 171.234C341.051 171.234 339.821 170.931 338.729 170.324C337.654 169.7 336.805 168.833 336.181 167.724C335.574 166.597 335.271 165.297 335.271 163.824C335.271 162.351 335.565 161.059 336.155 159.95C336.761 158.823 337.602 157.957 338.677 157.35C339.769 156.743 341.017 156.44 342.421 156.44C343.773 156.44 344.977 156.735 346.035 157.324C347.092 157.913 347.915 158.745 348.505 159.82C349.094 160.877 349.389 162.099 349.389 163.486ZM346.295 162.55C346.277 161.458 345.887 160.583 345.125 159.924C344.362 159.265 343.417 158.936 342.291 158.936C341.268 158.936 340.393 159.265 339.665 159.924C338.937 160.565 338.503 161.441 338.365 162.55H346.295ZM356.023 152.93L355.685 165.54H353.215L352.877 152.93H356.023ZM354.541 171.182C354.004 171.182 353.553 171 353.189 170.636C352.825 170.272 352.643 169.821 352.643 169.284C352.643 168.747 352.825 168.296 353.189 167.932C353.553 167.568 354.004 167.386 354.541 167.386C355.061 167.386 355.503 167.568 355.867 167.932C356.231 168.296 356.413 168.747 356.413 169.284C356.413 169.821 356.231 170.272 355.867 170.636C355.503 171 355.061 171.182 354.541 171.182Z" fill="white"/>
</svg>
