<svg width="255" height="62" viewBox="0 0 255 62" fill="none" xmlns="http://www.w3.org/2000/svg">
<path d="M11.398 45.287C9.56667 45.287 7.96767 44.959 6.601 44.303C5.26167 43.647 4.223 42.786 3.485 41.72C2.747 40.6267 2.30967 39.4513 2.173 38.194H2.993C3.12967 39.1507 3.47133 40.1073 4.018 41.064C4.592 42.0207 5.48033 42.8407 6.683 43.524C7.913 44.2073 9.48467 44.549 11.398 44.549C12.9287 44.549 14.2817 44.262 15.457 43.688C16.6323 43.0867 17.5343 42.294 18.163 41.31C18.7917 40.326 19.106 39.2327 19.106 38.03C19.106 36.472 18.7507 35.242 18.04 34.34C17.3293 33.4107 16.441 32.7273 15.375 32.29C14.3363 31.8527 12.9287 31.4017 11.152 30.937C9.29333 30.445 7.80367 29.953 6.683 29.461C5.56233 28.969 4.60567 28.2173 3.813 27.206C3.04767 26.1673 2.665 24.7733 2.665 23.024C2.665 21.7667 3.00667 20.5913 3.69 19.498C4.40067 18.3773 5.39833 17.489 6.683 16.833C7.995 16.177 9.48467 15.849 11.152 15.849C12.8467 15.849 14.309 16.1497 15.539 16.751C16.769 17.3523 17.7257 18.1177 18.409 19.047C19.1197 19.949 19.5843 20.9057 19.803 21.917H18.983C18.7917 21.1243 18.3953 20.318 17.794 19.498C17.1927 18.678 16.3317 17.9947 15.211 17.448C14.0903 16.874 12.7373 16.587 11.152 16.587C9.758 16.587 8.47333 16.8603 7.298 17.407C6.15 17.9263 5.22067 18.678 4.51 19.662C3.82667 20.6187 3.485 21.7393 3.485 23.024C3.485 24.6093 3.84033 25.8803 4.551 26.837C5.289 27.7663 6.191 28.4633 7.257 28.928C8.323 29.3653 9.74433 29.8163 11.521 30.281C13.3797 30.773 14.8557 31.265 15.949 31.757C17.0697 32.2217 18.0127 32.9597 18.778 33.971C19.5433 34.955 19.926 36.308 19.926 38.03C19.926 39.2327 19.598 40.3943 18.942 41.515C18.3133 42.6357 17.3567 43.5513 16.072 44.262C14.7873 44.9453 13.2293 45.287 11.398 45.287ZM35.2654 45.287C33.2154 45.287 31.3704 44.836 29.7304 43.934C28.0904 43.0047 26.7921 41.6927 25.8354 39.998C24.9061 38.276 24.4414 36.2533 24.4414 33.93C24.4414 31.6067 24.9061 29.5977 25.8354 27.903C26.7921 26.181 28.0904 24.869 29.7304 23.967C31.3704 23.0377 33.2154 22.573 35.2654 22.573C37.3154 22.573 39.1604 23.0377 40.8004 23.967C42.4404 24.869 43.7251 26.181 44.6544 27.903C45.5838 29.5977 46.0484 31.6067 46.0484 33.93C46.0484 36.2533 45.5838 38.276 44.6544 39.998C43.7251 41.6927 42.4404 43.0047 40.8004 43.934C39.1604 44.836 37.3154 45.287 35.2654 45.287ZM35.2654 44.549C37.0421 44.549 38.6821 44.1663 40.1854 43.401C41.6888 42.6083 42.9051 41.4193 43.8344 39.834C44.7638 38.2487 45.2284 36.2807 45.2284 33.93C45.2284 31.5793 44.7638 29.6113 43.8344 28.026C42.9051 26.4407 41.6888 25.2653 40.1854 24.5C38.6821 23.7073 37.0421 23.311 35.2654 23.311C33.4888 23.311 31.8351 23.7073 30.3044 24.5C28.8011 25.2653 27.5848 26.4543 26.6554 28.067C25.7261 29.6523 25.2614 31.6067 25.2614 33.93C25.2614 36.2533 25.7261 38.2213 26.6554 39.834C27.5848 41.4193 28.8011 42.6083 30.3044 43.401C31.8351 44.1663 33.4888 44.549 35.2654 44.549ZM60.1303 15.48C57.7523 15.48 56.0987 15.9447 55.1693 16.874C54.24 17.776 53.7753 19.252 53.7753 21.302V22.86H60.1303V23.721H53.7753V45H52.9553V23.721H49.3473V22.86H52.9553V21.302C52.9553 19.0607 53.502 17.3933 54.5953 16.3C55.6887 15.2067 57.5337 14.66 60.1303 14.66V15.48ZM66.8281 23.68V39.178C66.8281 40.5173 66.9784 41.5423 67.2791 42.253C67.5797 42.9637 68.0581 43.4693 68.7141 43.77C69.3701 44.0433 70.2857 44.18 71.4611 44.18H73.7981V45H71.3791C69.4657 45 68.0854 44.5627 67.2381 43.688C66.4181 42.8133 66.0081 41.31 66.0081 39.178V23.68H62.4001V22.86H66.0081V17.202H66.8281V22.86H73.7981V23.68H66.8281Z" fill="white"/>
<path d="M95.2194 40.449H104.649V45H89.4794V16.382H95.2194V40.449ZM106.822 33.561C106.822 31.265 107.273 29.2287 108.175 27.452C109.104 25.6753 110.348 24.3087 111.906 23.352C113.491 22.3953 115.254 21.917 117.195 21.917C118.889 21.917 120.365 22.2587 121.623 22.942C122.907 23.6253 123.932 24.4863 124.698 25.525V22.286H130.479V45H124.698V41.679C123.96 42.745 122.935 43.6333 121.623 44.344C120.338 45.0273 118.848 45.369 117.154 45.369C115.24 45.369 113.491 44.877 111.906 43.893C110.348 42.909 109.104 41.5287 108.175 39.752C107.273 37.948 106.822 35.8843 106.822 33.561ZM124.698 33.643C124.698 32.249 124.424 31.06 123.878 30.076C123.331 29.0647 122.593 28.2993 121.664 27.78C120.734 27.2333 119.737 26.96 118.671 26.96C117.605 26.96 116.621 27.2197 115.719 27.739C114.817 28.2583 114.079 29.0237 113.505 30.035C112.958 31.019 112.685 32.1943 112.685 33.561C112.685 34.9277 112.958 36.1303 113.505 37.169C114.079 38.1803 114.817 38.9593 115.719 39.506C116.648 40.0527 117.632 40.326 118.671 40.326C119.737 40.326 120.734 40.0663 121.664 39.547C122.593 39.0003 123.331 38.235 123.878 37.251C124.424 36.2397 124.698 35.037 124.698 33.643ZM148.672 21.958C151.378 21.958 153.565 22.819 155.232 24.541C156.899 26.2357 157.733 28.6137 157.733 31.675V45H151.993V32.454C151.993 30.65 151.542 29.2697 150.64 28.313C149.738 27.329 148.508 26.837 146.95 26.837C145.365 26.837 144.107 27.329 143.178 28.313C142.276 29.2697 141.825 30.65 141.825 32.454V45H136.085V22.286H141.825V25.115C142.59 24.131 143.561 23.3657 144.736 22.819C145.939 22.245 147.251 21.958 148.672 21.958ZM161.715 33.561C161.715 31.265 162.166 29.2287 163.068 27.452C163.998 25.6753 165.255 24.3087 166.84 23.352C168.426 22.3953 170.189 21.917 172.129 21.917C173.605 21.917 175.013 22.245 176.352 22.901C177.692 23.5297 178.758 24.377 179.55 25.443V14.66H185.372V45H179.55V41.638C178.84 42.7587 177.842 43.6607 176.557 44.344C175.273 45.0273 173.783 45.369 172.088 45.369C170.175 45.369 168.426 44.877 166.84 43.893C165.255 42.909 163.998 41.5287 163.068 39.752C162.166 37.948 161.715 35.8843 161.715 33.561ZM179.591 33.643C179.591 32.249 179.318 31.06 178.771 30.076C178.225 29.0647 177.487 28.2993 176.557 27.78C175.628 27.2333 174.63 26.96 173.564 26.96C172.498 26.96 171.514 27.2197 170.612 27.739C169.71 28.2583 168.972 29.0237 168.398 30.035C167.852 31.019 167.578 32.1943 167.578 33.561C167.578 34.9277 167.852 36.1303 168.398 37.169C168.972 38.1803 169.71 38.9593 170.612 39.506C171.542 40.0527 172.526 40.326 173.564 40.326C174.63 40.326 175.628 40.0663 176.557 39.547C177.487 39.0003 178.225 38.235 178.771 37.251C179.318 36.2397 179.591 35.037 179.591 33.643ZM193.889 19.58C192.878 19.58 192.031 19.2657 191.347 18.637C190.691 17.981 190.363 17.1747 190.363 16.218C190.363 15.2613 190.691 14.4687 191.347 13.84C192.031 13.184 192.878 12.856 193.889 12.856C194.901 12.856 195.734 13.184 196.39 13.84C197.074 14.4687 197.415 15.2613 197.415 16.218C197.415 17.1747 197.074 17.981 196.39 18.637C195.734 19.2657 194.901 19.58 193.889 19.58ZM196.718 22.286V45H190.978V22.286H196.718ZM214.977 21.958C217.683 21.958 219.869 22.819 221.537 24.541C223.204 26.2357 224.038 28.6137 224.038 31.675V45H218.298V32.454C218.298 30.65 217.847 29.2697 216.945 28.313C216.043 27.329 214.813 26.837 213.255 26.837C211.669 26.837 210.412 27.329 209.483 28.313C208.581 29.2697 208.13 30.65 208.13 32.454V45H202.39V22.286H208.13V25.115C208.895 24.131 209.865 23.3657 211.041 22.819C212.243 22.245 213.555 21.958 214.977 21.958ZM238.393 21.917C240.088 21.917 241.577 22.2587 242.862 22.942C244.147 23.598 245.158 24.459 245.896 25.525V22.286H251.677V45.164C251.677 47.2687 251.253 49.141 250.406 50.781C249.559 52.4483 248.288 53.7603 246.593 54.717C244.898 55.701 242.848 56.193 240.443 56.193C237.218 56.193 234.566 55.4413 232.489 53.938C230.439 52.4347 229.277 50.3847 229.004 47.788H234.703C235.004 48.8267 235.646 49.6467 236.63 50.248C237.641 50.8767 238.858 51.191 240.279 51.191C241.946 51.191 243.299 50.6853 244.338 49.674C245.377 48.69 245.896 47.1867 245.896 45.164V41.638C245.158 42.704 244.133 43.5923 242.821 44.303C241.536 45.0137 240.06 45.369 238.393 45.369C236.48 45.369 234.73 44.877 233.145 43.893C231.56 42.909 230.302 41.5287 229.373 39.752C228.471 37.948 228.02 35.8843 228.02 33.561C228.02 31.265 228.471 29.2287 229.373 27.452C230.302 25.6753 231.546 24.3087 233.104 23.352C234.689 22.3953 236.452 21.917 238.393 21.917ZM245.896 33.643C245.896 32.249 245.623 31.06 245.076 30.076C244.529 29.0647 243.791 28.2993 242.862 27.78C241.933 27.2333 240.935 26.96 239.869 26.96C238.803 26.96 237.819 27.2197 236.917 27.739C236.015 28.2583 235.277 29.0237 234.703 30.035C234.156 31.019 233.883 32.1943 233.883 33.561C233.883 34.9277 234.156 36.1303 234.703 37.169C235.277 38.1803 236.015 38.9593 236.917 39.506C237.846 40.0527 238.83 40.326 239.869 40.326C240.935 40.326 241.933 40.0663 242.862 39.547C243.791 39.0003 244.529 38.235 245.076 37.251C245.623 36.2397 245.896 35.037 245.896 33.643Z" fill="white"/>
</svg>
